<svg width="1em" height="1em" viewBox="0 0 75 57" fill="none" xmlns="http://www.w3.org/2000/svg">
<path fill-rule="evenodd" clip-rule="evenodd" d="M20.5424 16.4958C22.0558 14.9682 22.0558 12.4937 20.5424 10.9661L20.4916 10.914C18.9783 9.38638 16.5264 9.38638 15.0131 10.914L1.135 24.9197C-0.378335 26.4473 -0.378335 28.9266 1.135 30.4543L15.0131 44.4589C16.5264 45.9866 18.9783 45.9866 20.4916 44.4589L20.5424 44.4079C22.0558 42.8802 22.0558 40.4057 20.5424 38.8781L12.1976 30.4543C10.6843 28.9266 10.6843 26.4473 12.1976 24.9197L20.5424 16.4958ZM73.865 24.9197L59.9869 10.914C58.4775 9.38638 56.0217 9.38638 54.5084 10.914L54.4576 10.9661C52.9442 12.4937 52.9442 14.9682 54.4576 16.4958L62.8063 24.9197C64.3197 26.4473 64.3197 28.9266 62.8063 30.4543L54.4576 38.8781C52.9442 40.4057 52.9442 42.8802 54.4576 44.4079L54.5084 44.4589C56.0217 45.9866 58.4775 45.9866 59.9869 44.4589L73.865 30.4543C75.3783 28.9266 75.3783 26.4473 73.865 24.9197ZM50.5633 8.5587L30.5802 51.311C29.9328 52.655 28.797 54.3158 27.3317 54.3158H27.2542C24.405 54.3158 22.5482 50.4465 23.808 47.8377L43.6748 5.49024C44.3222 4.15014 46.7217 3.09926 46.7217 3.09926V3C50.5982 3 51.8192 5.94992 50.5633 8.5587Z" fill="var(--nextui-colors-secondary)"/>
<path d="M47.4365 6.8457L26.9237 50.4354" stroke="var(--nextui-colors-primary)" stroke-width="13" stroke-linecap="round"/>
</svg>
