<svg width="31" height="25" viewBox="0 0 31 25" fill="none" xmlns="http://www.w3.org/2000/svg">
<path d="M5.82893 2.38376L21.7264 1.98633L28.4828 7.02052L26.4956 12.4521L15.3674 21.8581L5.03405 12.4521L3.04688 8.61026L5.82893 2.38376Z" fill="#0088CC"/>
<path fill-rule="evenodd" clip-rule="evenodd" d="M14.2969 20.4367L3.86557 9.7245C3.40677 9.21487 3.34321 8.46844 3.71056 7.89146L7.18564 3.71149C7.46928 3.26765 7.96526 3.06062 8.49845 3.06062H22.4948C23.0172 3.06062 23.5039 3.25568 23.7906 3.68727L27.2161 7.64322C27.5989 8.21715 27.5462 8.95593 27.089 9.47323L16.6219 20.4336C16.0081 21.1269 14.9169 21.1254 14.2969 20.4367ZM23.4047 0H7.64129C6.5749 0 5.58291 0.477596 5.01562 1.36986L0.474166 7.2701C-0.258977 8.42408 -0.131896 9.90025 0.785696 10.918L13.1701 23.7773C14.4117 25.1517 16.5909 25.1382 17.8185 23.7516L30.2339 10.5986C31.1469 9.56711 31.2553 8.06074 30.4974 6.91288L26.004 1.32672C25.4321 0.458946 24.454 0 23.4047 0Z" fill="#292929"/>
</svg>
