<svg width="1em" height="1em" viewBox="0 0 76 76" fill="none" xmlns="http://www.w3.org/2000/svg">
<path d="M49.303 33.4009C51.1045 33.4017 52.8342 32.6942 54.1187 31.4309L62.2178 23.4091C62.3633 25.1558 63.1729 26.7803 64.4799 27.9483C65.7869 29.1161 67.492 29.7386 69.244 29.6874C70.9961 29.6363 72.662 28.9155 73.8986 27.6734C75.1354 26.4312 75.8488 24.7622 75.8922 23.0099L75.9695 7.08212C75.9763 5.25391 75.2574 3.49769 73.9708 2.19892C72.6841 0.90016 70.9347 0.164985 69.1065 0.154762L53.1015 0.000248428C51.3045 -0.0150742 49.5741 0.678948 48.2858 1.93167C47.0026 3.21612 46.2818 4.95748 46.2818 6.77309C46.2818 8.58871 47.0026 10.33 48.2858 11.6145C49.4429 12.8 50.9976 13.5156 52.6508 13.6232L44.423 21.6965C43.1345 22.9789 42.4075 24.7201 42.4014 26.538C42.3979 27.439 42.5728 28.332 42.9157 29.1653C43.2586 29.9987 43.7628 30.756 44.3994 31.3938C45.036 32.0315 45.7923 32.5373 46.625 32.8818C47.4577 33.2262 48.3503 33.4026 49.2515 33.4009H49.303Z" fill="var(--nextui-colors-secondary)"/>
<path d="M6.81152 29.7567C8.54303 29.7576 10.2104 29.1016 11.477 27.9211C12.7436 26.7405 13.5152 25.1232 13.6358 23.3959L21.6963 31.5465C22.3259 32.1881 23.0774 32.6975 23.9066 33.0446C24.7357 33.3918 25.6259 33.5697 26.5248 33.5681C27.4281 33.5724 28.3228 33.3959 29.1567 33.0486C29.9904 32.7015 30.7461 32.1907 31.3791 31.5465C32.6585 30.2626 33.3767 28.524 33.3767 26.7115C33.3767 24.8991 32.6585 23.1604 31.3791 21.8765L23.3573 13.7775C25.015 13.6742 26.5791 12.9744 27.7609 11.8074C28.4025 11.1779 28.9119 10.4263 29.2591 9.59718C29.6062 8.768 29.7841 7.87779 29.7825 6.97887C29.7876 6.07929 29.6155 5.18753 29.2759 4.3545C28.9364 3.52145 28.436 2.76346 27.8035 2.12377C27.1711 1.48409 26.4187 0.975263 25.5895 0.626333C24.7604 0.277403 23.8707 0.0952054 22.971 0.0901451L7.00466 1.23488e-05C5.17749 -0.00343845 3.42322 0.716466 2.12519 2.00243C0.827172 3.28839 0.0909158 5.03586 0.0773057 6.86299L4.90917e-05 22.868C-0.00681388 24.6838 0.70615 26.4282 1.98283 27.7193C3.2595 29.0105 4.99582 29.7431 6.81152 29.7567Z" fill="var(--nextui-colors-primary)"/>
<path d="M21.8508 44.5391L13.7646 52.5609C13.6569 50.8242 12.8936 49.1933 11.6291 47.998C10.3645 46.8029 8.69314 46.1325 6.95316 46.1229C5.14188 46.1262 3.40538 46.8455 2.12221 48.1238C0.839044 49.4022 0.113242 51.1359 0.103057 52.9472L4.85144e-05 68.9522C-0.00680158 70.7804 0.712008 72.5367 1.99871 73.8354C3.28539 75.1342 5.03483 75.8693 6.86302 75.8796L22.868 75.9697C24.6647 75.9836 26.3946 75.2899 27.6837 74.0383C28.616 73.1123 29.2621 71.9376 29.5453 70.6543C29.8284 69.3711 29.7365 68.0335 29.2804 66.8012C28.8244 65.5688 28.0235 64.4936 26.9733 63.7038C25.9231 62.914 24.6678 62.443 23.3573 62.3468L31.5465 54.2735C32.835 52.991 33.562 51.2499 33.5681 49.432C33.5708 48.5311 33.3933 47.6387 33.0462 46.8072C32.699 45.9758 32.1891 45.2222 31.5465 44.5906C30.2667 43.2998 28.527 42.5693 26.7093 42.5597C24.8916 42.55 23.1443 43.2619 21.8508 44.5391Z" fill="var(--nextui-colors-secondary)"/>
<path d="M69.158 46.2128C67.4266 46.2119 65.7591 46.8679 64.4925 48.0485C63.2259 49.2291 62.4543 50.8464 62.3337 52.5736L54.2732 44.423C53.6437 43.7814 52.8921 43.2721 52.063 42.9249C51.2338 42.5777 50.3436 42.3998 49.4447 42.4014C48.5415 42.3971 47.6466 42.5737 46.8129 42.9209C45.9792 43.2681 45.2235 43.7789 44.5904 44.423C43.3111 45.707 42.5928 47.4455 42.5928 49.258C42.5928 51.0706 43.3111 52.8091 44.5904 54.093L52.6122 62.1921C50.8379 62.3007 49.1752 63.0949 47.9755 64.4069C46.7758 65.7187 46.1333 67.4456 46.1834 69.2227C46.2335 70.9997 46.9726 72.6875 48.2442 73.9297C49.516 75.172 51.2208 75.871 52.9985 75.8794L69.0035 75.9566C70.8262 75.9533 72.5739 75.2304 73.8663 73.9452C75.1588 72.66 75.8916 70.9164 75.9051 69.0936L75.9824 53.0886C75.9824 51.274 75.265 49.5329 73.9867 48.2449C72.7083 46.9569 70.9726 46.2264 69.158 46.2128Z" fill="var(--nextui-colors-primary)"/>
</svg>
