<svg width="1em" height="1em" viewBox="0 0 20 15" fill="none" xmlns="http://www.w3.org/2000/svg">
<path d="M1.34087 14.7531H4.46955V7.1549L0 3.80273V13.4123C0 14.1531 0.600037 14.7531 1.34087 14.7531Z" fill="#4285F4"/>
<path d="M15.1963 14.7531H18.325C19.0658 14.7531 19.6658 14.1531 19.6658 13.4123V3.80273L15.1963 7.1549V14.7531Z" fill="#34A853"/>
<path d="M15.1963 1.34448V7.15489L19.6658 3.80273V2.01491C19.6658 0.357825 17.7741 -0.588602 16.4478 0.405873L15.1963 1.34448Z" fill="#FBBC04"/>
<path d="M4.46973 7.15417V1.34375L9.83319 5.36635L15.1966 1.34375V7.15417L9.83319 11.1768L4.46973 7.15417Z" fill="#EA4335"/>
<path d="M0 2.01491V3.80273L4.46955 7.15489V1.34448L3.21808 0.405873C1.89174 -0.588602 0 0.357825 0 2.01491Z" fill="#C5221F"/>
</svg>
