<svg width="1em" height="1em" viewBox="0 0 14 13" fill="none" xmlns="http://www.w3.org/2000/svg">
<path opacity="0.3" d="M6.29818 12.5986L6.25664 12.5571L6.2526 12.5622M6.29818 12.5986L6.71392 11.9707M6.29818 12.5986C6.29141 12.5933 6.28334 12.5868 6.27526 12.5803C6.26732 12.5739 6.25936 12.5675 6.2526 12.5622M6.29818 12.5986L6.29932 12.5975C6.4883 12.7403 6.71594 12.8219 6.95182 12.8322L6.24691 12.5576L6.2526 12.5622M6.2526 12.5622L6.25661 12.5571L6.25148 12.5519L6.25142 12.5519L5.76785 12.0683L5.76899 12.0672L6.2306 11.6055L6.71003 11.9678L6.71392 11.9707M6.71392 11.9707L6.75146 11.9991C6.82319 12.0533 6.91052 12.0828 7.0004 12.0833C7.0904 12.0829 7.17786 12.0534 7.24968 11.9991L7.25704 11.9935L7.2741 11.9802C8.26004 11.2064 9.77635 9.97581 11.0434 8.50135C12.3279 7.00644 13.25 5.38187 13.25 3.81787C13.25 2.12333 11.8767 0.75 10.1821 0.75C9.40083 0.75 8.76655 1.08823 8.30552 1.45928C8.0768 1.64335 7.90054 1.82803 7.78281 1.96515C7.7243 2.03329 7.68125 2.08851 7.65437 2.1244C7.64096 2.14231 7.63166 2.15529 7.62655 2.16253L7.62235 2.16855L7 3.10205L6.37765 2.16856L6.37345 2.16253C6.36834 2.15529 6.35904 2.14231 6.34563 2.1244C6.31875 2.08851 6.2757 2.03329 6.21719 1.96515C6.09946 1.82803 5.9232 1.64335 5.69448 1.45928C5.23345 1.08823 4.59917 0.75 3.81787 0.75C2.12333 0.75 0.75 2.12333 0.75 3.81787C0.75 5.3781 1.66718 6.99835 2.94679 8.49021C4.20902 9.9618 5.72135 11.1914 6.71009 11.9677L6.71392 11.9707Z" stroke="currentColor" stroke-width="1.5"/>
</svg>
