<svg width="1em" height="1em" viewBox="0 0 16 16" fill="none" xmlns="http://www.w3.org/2000/svg">
<path d="M8 0.5C3.86452 0.5 0.5 3.86453 0.5 8C0.5 12.1355 3.86452 15.5 8 15.5C12.1355 15.5 15.5 12.1355 15.5 8C15.5 3.86453 12.1355 0.5 8 0.5ZM8 1.625C11.5275 1.625 14.375 4.47252 14.375 8C14.375 11.5275 11.5275 14.375 8 14.375C4.47252 14.375 1.625 11.5275 1.625 8C1.625 4.47252 4.47252 1.625 8 1.625ZM8 4.25C7.80109 4.25 7.61032 4.32902 7.46967 4.46967C7.32902 4.61032 7.25 4.80109 7.25 5C7.25 5.19891 7.32902 5.38968 7.46967 5.53033C7.61032 5.67098 7.80109 5.75 8 5.75C8.19891 5.75 8.38968 5.67098 8.53033 5.53033C8.67098 5.38968 8.75 5.19891 8.75 5C8.75 4.80109 8.67098 4.61032 8.53033 4.46967C8.38968 4.32902 8.19891 4.25 8 4.25ZM7.99121 6.86694C7.84215 6.86927 7.70012 6.93067 7.5963 7.03765C7.49248 7.14463 7.43536 7.28844 7.4375 7.4375V11.5625C7.43645 11.637 7.45022 11.711 7.47801 11.7802C7.50581 11.8494 7.54707 11.9123 7.59941 11.9654C7.65175 12.0185 7.71411 12.0607 7.78288 12.0894C7.85165 12.1182 7.92545 12.133 8 12.133C8.07455 12.133 8.14835 12.1182 8.21712 12.0894C8.28589 12.0607 8.34825 12.0185 8.40059 11.9654C8.45293 11.9123 8.49419 11.8494 8.52199 11.7802C8.54978 11.711 8.56355 11.637 8.5625 11.5625V7.4375C8.56358 7.36221 8.54953 7.28747 8.5212 7.21772C8.49286 7.14796 8.45081 7.0846 8.39753 7.03139C8.34426 6.97818 8.28084 6.93621 8.21105 6.90796C8.14125 6.87972 8.0665 6.86577 7.99121 6.86694Z" fill="currentColor"/>
</svg>
