<svg width="1em" height="1em" viewBox="0 0 12 10" fill="none" xmlns="http://www.w3.org/2000/svg">
<path d="M0.953358 4.4182L7.35076 1.78236C7.98226 1.50779 10.1239 0.62918 10.1239 0.62918C10.1239 0.62918 11.1123 0.244787 11.0299 1.17831C11.0025 1.56271 10.7828 2.90808 10.5632 4.36328L9.87677 8.67398C9.87677 8.67398 9.82186 9.30548 9.35509 9.41531C8.88833 9.52514 8.11954 9.03092 7.98226 8.92109C7.87243 8.83872 5.92301 7.60317 5.20914 6.99912C5.01694 6.83438 4.79729 6.5049 5.2366 6.12051C6.22504 5.21444 7.40567 4.08872 8.11954 3.37485C8.44902 3.04537 8.7785 2.27658 7.40567 3.21011L3.53428 5.81849C3.53428 5.81849 3.09498 6.09305 2.27128 5.84594C1.44758 5.59883 0.486595 5.26935 0.486595 5.26935C0.486595 5.26935 -0.172365 4.8575 0.953358 4.4182Z" fill="currentColor"/>
</svg>
