<svg width="1em" height="1em" viewBox="0 0 75 76" fill="none" xmlns="http://www.w3.org/2000/svg">
<path d="M38.9746 47.5538L47.2857 39.2427L53.452 33.0764C59.3502 34.685 65.5165 33.0764 70.0742 28.7867C74.9 23.9609 76.2405 16.9903 73.8276 10.5559C73.5595 9.75163 72.7552 9.21543 71.9509 8.94733C71.1466 8.67923 70.0742 8.94733 69.538 9.75163L63.3717 15.6498L59.8864 14.8455L59.0821 11.3602L64.9803 5.46203C65.5165 4.92583 65.7846 3.85343 65.7846 3.04913C65.5165 2.24482 64.9803 1.44052 64.176 1.17242C58.0097 -1.24048 50.771 0.100023 45.9452 4.92583C41.6556 9.21543 40.047 15.6498 41.6556 21.548L37.366 25.8376L30.3953 18.867L24.229 8.41113C23.9609 8.14303 23.6928 7.60683 23.4247 7.60683L12.9688 1.44052C11.8964 0.636224 10.5559 0.904324 9.48353 1.70862L1.44052 10.0197C0.368123 10.824 0.368123 12.1645 0.904323 13.2369L7.07063 23.6928C7.33873 23.9609 7.60683 24.4971 7.87493 24.4971L17.7946 30.3953L24.7652 37.366L21.548 40.5832C15.6498 38.9746 9.48353 40.5832 4.92583 44.8728C0.100022 49.6986 -1.24048 56.6692 1.17242 63.1036C1.44052 63.9079 2.24482 64.4441 3.04912 64.7122C3.85343 64.9803 4.92583 64.7122 5.46203 63.9079L11.8964 58.5459L15.3817 59.3502L16.186 62.8355L10.2878 68.7337C9.75163 69.2699 9.48353 70.3423 9.48353 71.1466C9.75163 71.9509 10.2878 72.7552 11.0921 73.0233C13.2369 73.8276 15.1136 74.0957 17.2584 74.0957C21.548 74.0957 26.1057 72.4871 29.3229 69.0018C33.6125 64.7122 35.2211 58.2778 33.6125 52.3796L38.9746 47.5538Z" fill="var(--nextui-colors-secondary)"/>
<path d="M55.0606 39.2432L38.9746 55.3292L55.3287 71.6833C57.4735 73.8281 60.4226 75.1686 63.3717 75.1686C66.3208 75.1686 69.2699 74.0962 71.4147 71.6833C73.5595 69.5385 74.9 66.5894 74.9 63.6403C74.9 60.6912 73.8276 57.7421 71.4147 55.5973L55.0606 39.2432Z" fill="var(--nextui-colors-primary)"/>
</svg>
