<svg width="1em" height="1em" viewBox="0 0 39 39" fill="none" xmlns="http://www.w3.org/2000/svg">
<!-- <path d="M19.4865 39C30.2486 39 38.973 30.2696 38.973 19.5C38.973 8.73045 30.2486 0 19.4865 0C8.7244 0 0 8.73045 0 19.5C0 30.2696 8.7244 39 19.4865 39Z" fill="#0088CC"/> -->
<path fill-rule="evenodd" clip-rule="evenodd" d="M14.0642 12.8867H24.9936C25.3803 12.8867 25.7666 12.9435 26.1704 13.1319C26.6545 13.3576 26.9111 13.7136 27.091 13.9768C27.1049 13.9972 27.118 14.0183 27.1301 14.0399C27.3416 14.4166 27.4506 14.8232 27.4506 15.2606C27.4506 15.6763 27.3517 16.1291 27.1301 16.5237C27.1281 16.5275 27.1259 16.5313 27.1237 16.535L20.2187 28.4046C20.0664 28.6663 19.7862 28.8269 19.4835 28.8259C19.1808 28.8248 18.9017 28.6622 18.7513 28.3994L11.9731 16.5551C11.9711 16.552 11.9692 16.5487 11.9672 16.5455C11.8121 16.2897 11.5722 15.8941 11.5302 15.3836C11.4917 14.9142 11.5971 14.4438 11.8328 14.036C12.0686 13.6281 12.4234 13.302 12.8502 13.1024C13.3079 12.8884 13.7717 12.8867 14.0642 12.8867ZM18.6393 14.5824H14.0642C13.7636 14.5824 13.6482 14.6009 13.5675 14.6387C13.456 14.6907 13.3623 14.7764 13.2997 14.8848C13.237 14.9933 13.2087 15.1189 13.219 15.2446C13.2249 15.3168 13.2543 15.3992 13.4275 15.6851C13.4311 15.6911 13.4347 15.6972 13.4382 15.7032L18.6393 24.7915V14.5824ZM20.3337 14.5824V24.8365L25.6553 15.6888C25.7154 15.5796 25.7561 15.4218 25.7561 15.2606C25.7561 15.1299 25.729 15.0164 25.6684 14.8993C25.6049 14.808 25.5662 14.7596 25.5339 14.7264C25.5061 14.6981 25.4847 14.6829 25.4545 14.6688C25.3287 14.6101 25.1999 14.5824 24.9936 14.5824H20.3337Z" fill="currentColor"/>
</svg>
