<svg width="1em" height="1em" viewBox="0 0 14 14" fill="none" xmlns="http://www.w3.org/2000/svg">
<path d="M7 0.600006C3.47175 0.600006 0.599998 3.47176 0.599998 7.00001C0.599998 10.5283 3.47175 13.4 7 13.4C10.5282 13.4 13.4 10.5283 13.4 7.00001C13.4 3.47176 10.5282 0.600006 7 0.600006ZM7 1.66667C7.20957 1.66667 7.4269 1.75351 7.675 1.98438C7.9231 2.21525 8.17984 2.58756 8.4 3.07188C8.56358 3.43174 8.69705 3.86773 8.8125 4.33334H5.1875C5.30295 3.86773 5.43642 3.43174 5.6 3.07188C5.82016 2.58756 6.0769 2.21525 6.325 1.98438C6.5731 1.75351 6.79042 1.66667 7 1.66667ZM4.8875 2.1323C4.79667 2.29069 4.70926 2.45506 4.62917 2.63126C4.40111 3.13294 4.21811 3.7083 4.08021 4.33334H2.48125C3.0481 3.37592 3.88058 2.59659 4.8875 2.1323ZM9.1125 2.1323C10.1194 2.59659 10.9519 3.37592 11.5187 4.33334H9.91979C9.78189 3.7083 9.59888 3.13294 9.37083 2.63126C9.29074 2.45506 9.20333 2.29069 9.1125 2.1323ZM1.98958 5.40001H3.89896C3.83627 5.91208 3.8 6.44638 3.8 7.00001C3.8 7.55364 3.83627 8.08793 3.89896 8.60001H1.98958C1.82601 8.08699 1.66667 7.5682 1.66667 7.00001C1.66667 6.43181 1.82601 5.91302 1.98958 5.40001ZM4.98542 5.40001H9.01458C9.08414 5.90885 9.13333 6.43867 9.13333 7.00001C9.13333 7.56134 9.08414 8.09116 9.01458 8.60001H4.98542C4.91586 8.09116 4.86667 7.56134 4.86667 7.00001C4.86667 6.43867 4.91586 5.90885 4.98542 5.40001ZM10.101 5.40001H12.0104C12.174 5.91302 12.3333 6.43181 12.3333 7.00001C12.3333 7.5682 12.174 8.08699 12.0104 8.60001H10.101C10.1637 8.08793 10.2 7.55364 10.2 7.00001C10.2 6.44638 10.1637 5.91208 10.101 5.40001ZM2.48125 9.66667H4.08021C4.21811 10.2917 4.40111 10.8671 4.62917 11.3688C4.70926 11.545 4.79667 11.7093 4.8875 11.8677C3.88058 11.4034 3.0481 10.6241 2.48125 9.66667ZM5.1875 9.66667H8.8125C8.69705 10.1323 8.56358 10.5683 8.4 10.9281C8.17984 11.4125 7.9231 11.7848 7.675 12.0156C7.4269 12.2465 7.20957 12.3333 7 12.3333C6.79042 12.3333 6.5731 12.2465 6.325 12.0156C6.0769 11.7848 5.82016 11.4125 5.6 10.9281C5.43642 10.5683 5.30295 10.1323 5.1875 9.66667ZM9.91979 9.66667H11.5187C10.9519 10.6241 10.1194 11.4034 9.1125 11.8677C9.20333 11.7093 9.29074 11.545 9.37083 11.3688C9.59888 10.8671 9.78189 10.2917 9.91979 9.66667Z" fill="currentColor"/>
</svg>
