<svg xmlns="http://www.w3.org/2000/svg" width="40" height="40" viewBox="0 0 40 40" fill="none">

<path opacity="0.7" d="M6.44251 13.4707L0 1.22199L11.4014 5.85683L11.2071 0L29.5366 6.2844C31.119 6.95974 32.6264 7.882 34.0003 9.05725C41.2344 15.2475 42.04 26.0826 35.7994 33.2578C29.5588 40.4336 18.6355 41.2326 11.4014 35.0424C10.0276 33.8672 8.8871 32.5231 7.98117 31.0696L0.610975 12.1842L6.44251 13.4707Z" fill="url(#paint0_linear_688_260)"/>
<path d="M16.0112 11.2405L17.2468 8.20796C17.6854 7.1319 18.9643 6.68086 19.9813 7.24285L27.2058 11.2405H16.0112Z" fill="#40A6DA"/>
<path d="M27.2058 30.6318L25.9702 33.6644C25.5316 34.7404 24.2527 35.1915 23.2357 34.6295L16.0112 30.6318H27.2058Z" fill="#2391BD"/>
<path d="M10.4142 20.9349L8.40588 18.3488C7.69354 17.4316 7.94171 16.0975 8.93701 15.4981L16.0112 11.2405L10.4142 20.9349Z" fill="#2391BD"/>
<path d="M16.0113 30.6293L12.7681 31.0758C11.6172 31.234 10.5864 30.3516 10.5654 29.1902L10.415 20.9349L16.0113 30.6293Z" fill="#40A6DA"/>
<path d="M32.8025 20.9349L34.8102 23.521C35.5225 24.4382 35.2737 25.7723 34.2791 26.371L27.2056 30.6293L32.8025 20.9349Z" fill="#40A6DA"/>
<path d="M27.2056 11.2405L30.4488 10.794C31.5998 10.6358 32.6305 11.5182 32.6515 12.6796L32.8025 20.9349L27.2056 11.2405Z" fill="#2391BD"/>
<path d="M16.0113 11.2405L10.415 20.9349H32.8029L16.0113 11.2405Z" fill="#83C7E6"/>
<path d="M10.415 20.9349L27.2059 30.6293L32.8029 20.9349H10.415Z" fill="#57B4DD"/>
<path d="M27.2058 11.2405H16.0112L32.8028 20.9349L27.2051 11.2405H27.2058Z" fill="#65BCDF"/>
<path d="M16.0113 30.632L27.2059 30.6293L10.415 20.9349L16.0113 30.632Z" fill="#65BCDF"/>
<path d="M16.0113 11.2405L10.415 20.9349H32.8029L16.0113 11.2405Z" fill="url(#paint1_linear_688_260)" fill-opacity="0.5"/>
<path d="M10.4141 20.9349L16.011 11.2405L32.8026 20.9349L16.185 12.1432L10.4141 20.9349Z" fill="url(#paint2_linear_688_260)"/>
<path d="M10.4141 20.9349H32.8026L27.2056 30.6293L31.6937 21.751L10.4141 20.9349Z" fill="url(#paint3_linear_688_260)"/>
<path d="M27.2058 11.2405H16.0112L32.8028 20.9349L17.8961 11.5648L27.2058 11.2405Z" fill="url(#paint4_linear_688_260)"/>
<path d="M27.2056 30.632L10.4141 20.9349L16.011 30.632L12.3285 22.8586L27.2056 30.632Z" fill="url(#paint5_linear_688_260)"/>
<defs>
<linearGradient id="paint0_linear_688_260" x1="7" y1="7" x2="34.5" y2="34.5" gradientUnits="userSpaceOnUse">
<stop stop-color="#68FEFF" stop-opacity="0.5"/>
<stop offset="1" stop-color="#3FA6B1" stop-opacity="0.2"/>
</linearGradient>
<linearGradient id="paint1_linear_688_260" x1="14.5223" y1="12.4892" x2="26.2342" y2="26.4465" gradientUnits="userSpaceOnUse">
<stop stop-color="white"/>
<stop offset="1" stop-color="white" stop-opacity="0.1"/>
</linearGradient>
<linearGradient id="paint2_linear_688_260" x1="16.011" y1="11.2398" x2="24.4068" y2="25.7821" gradientUnits="userSpaceOnUse">
<stop stop-color="white"/>
<stop offset="1" stop-color="white" stop-opacity="0.1"/>
</linearGradient>
<linearGradient id="paint3_linear_688_260" x1="18.8098" y1="16.0877" x2="27.2056" y2="30.6293" gradientUnits="userSpaceOnUse">
<stop stop-color="white"/>
<stop offset="1" stop-color="white" stop-opacity="0.1"/>
</linearGradient>
<linearGradient id="paint4_linear_688_260" x1="20.2091" y1="8.81655" x2="28.6049" y2="23.3581" gradientUnits="userSpaceOnUse">
<stop stop-color="white"/>
<stop offset="1" stop-color="white" stop-opacity="0.1"/>
</linearGradient>
<linearGradient id="paint5_linear_688_260" x1="14.6106" y1="18.5117" x2="23.0077" y2="33.0552" gradientUnits="userSpaceOnUse">
<stop stop-color="white"/>
<stop offset="1" stop-color="white" stop-opacity="0.1"/>
</linearGradient>
</defs>
</svg>