<svg width="68" height="107" viewBox="0 0 68 107" fill="none" xmlns="http://www.w3.org/2000/svg">
<path d="M39.2333 77.3843C39.2333 76.2376 38.304 75.3096 37.1587 75.3096C36.0133 75.3096 35.084 76.2376 35.084 77.3843C35.084 78.5296 36.0133 79.459 37.1587 79.459C38.304 79.459 39.2333 78.5296 39.2333 77.3843Z" fill="#1E6AAE"/>
<path d="M47.4255 77.384C47.4255 76.1133 46.3948 75.084 45.1268 75.084C43.8561 75.084 42.8281 76.1133 42.8281 77.384C42.8281 78.6533 43.8561 79.6826 45.1268 79.6826C46.3948 79.6826 47.4255 78.6533 47.4255 77.384Z" fill="#1E6AAE"/>
<path d="M14.7837 77.3839C14.7837 76.5412 14.101 75.8585 13.2597 75.8585C12.4171 75.8585 11.7344 76.5412 11.7344 77.3839C11.7344 78.2265 12.4171 78.9092 13.2597 78.9092C14.101 78.9092 14.7837 78.2265 14.7837 77.3839Z" fill="#1E6AAE"/>
<path d="M31.0637 77.3839C31.0637 76.3492 30.225 75.5105 29.1917 75.5105C28.157 75.5105 27.3184 76.3492 27.3184 77.3839C27.3184 78.4172 28.157 79.2559 29.1917 79.2559C30.225 79.2559 31.0637 78.4172 31.0637 77.3839Z" fill="#1E6AAE"/>
<path d="M22.9152 77.3839C22.9152 76.4506 22.1592 75.6932 21.2258 75.6932C20.2925 75.6932 19.5352 76.4506 19.5352 77.3839C19.5352 78.3172 20.2925 79.0732 21.2258 79.0732C22.1592 79.0732 22.9152 78.3172 22.9152 77.3839Z" fill="#1E6AAE"/>
<path d="M43.325 73.3996C43.325 72.1956 42.3477 71.217 41.141 71.217C39.9357 71.217 38.957 72.1956 38.957 73.3996C38.957 74.6063 39.9357 75.585 41.141 75.585C42.3477 75.585 43.325 74.6063 43.325 73.3996Z" fill="#1E6AAE"/>
<path d="M51.5294 73.4C51.5294 72.5653 51.1068 71.8293 50.4628 71.3946C50.0774 71.1333 49.6108 70.9813 49.1095 70.9813C48.9428 70.9813 48.7801 70.9986 48.6228 71.0306C47.5201 71.256 46.6895 72.232 46.6895 73.4C46.6895 74.5693 47.5201 75.5453 48.6228 75.772C48.7801 75.804 48.9428 75.8213 49.1095 75.8213C49.6108 75.8213 50.0774 75.6693 50.4628 75.4066C51.1068 74.972 51.5294 74.236 51.5294 73.4Z" fill="#1E6AAE"/>
<path d="M31.0637 85.3503C31.0637 84.3156 30.225 83.477 29.1917 83.477C28.157 83.477 27.3184 84.3156 27.3184 85.3503C27.3184 86.3836 28.157 87.2236 29.1917 87.2236C30.225 87.2236 31.0637 86.3836 31.0637 85.3503Z" fill="#1E6AAE"/>
<path d="M22.9152 85.3504C22.9152 84.417 22.1592 83.6597 21.2258 83.6597C20.2925 83.6597 19.5352 84.417 19.5352 85.3504C19.5352 86.2837 20.2925 87.041 21.2258 87.041C22.1592 87.041 22.9152 86.2837 22.9152 85.3504Z" fill="#1E6AAE"/>
<path d="M39.2333 85.3507C39.2333 84.2041 38.304 83.2761 37.1587 83.2761C36.0133 83.2761 35.084 84.2041 35.084 85.3507C35.084 86.4961 36.0133 87.4268 37.1587 87.4268C38.304 87.4268 39.2333 86.4961 39.2333 85.3507Z" fill="#1E6AAE"/>
<path d="M14.7837 85.3507C14.7837 84.508 14.101 83.8253 13.2597 83.8253C12.4171 83.8253 11.7344 84.508 11.7344 85.3507C11.7344 86.1933 12.4171 86.876 13.2597 86.876C14.101 86.876 14.7837 86.1933 14.7837 85.3507Z" fill="#1E6AAE"/>
<path d="M6.66935 85.3512C6.66935 84.5912 6.05336 83.9739 5.29336 83.9739C4.53336 83.9739 3.91602 84.5912 3.91602 85.3512C3.91602 86.1112 4.53336 86.7285 5.29336 86.7285C6.05336 86.7285 6.66935 86.1112 6.66935 85.3512Z" fill="#1E6AAE"/>
<path d="M10.6102 81.9311C10.6835 81.7578 10.7248 81.5671 10.7248 81.3671C10.7248 80.5671 10.0755 79.9191 9.2755 79.9191C8.4755 79.9191 7.82617 80.5671 7.82617 81.3671C7.82617 81.5671 7.86617 81.7578 7.9395 81.9311C8.01284 82.1044 8.1195 82.2604 8.25016 82.3924C8.51283 82.6551 8.8755 82.8164 9.2755 82.8164C9.6755 82.8164 10.0382 82.6551 10.2995 82.3924C10.4315 82.2604 10.5368 82.1044 10.6102 81.9311Z" fill="#1E6AAE"/>
<path d="M18.5741 82.2643C18.6314 82.179 18.6807 82.0883 18.7221 81.9923C18.8034 81.8003 18.8474 81.5883 18.8474 81.367C18.8474 81.035 18.7461 80.7256 18.5741 80.4696C18.2847 80.043 17.7967 79.763 17.2421 79.763C17.1314 79.763 17.0234 79.7736 16.9181 79.795C16.6047 79.859 16.3247 80.015 16.1074 80.2323C16.0341 80.3056 15.9687 80.3843 15.9114 80.4696C15.7954 80.6403 15.7127 80.8349 15.6687 81.0429C15.6487 81.1483 15.6367 81.2563 15.6367 81.367C15.6367 81.4776 15.6487 81.5856 15.6687 81.691C15.6914 81.795 15.722 81.8963 15.7634 81.9923C15.8034 82.0883 15.8527 82.179 15.9114 82.2643C15.9687 82.351 16.0341 82.4296 16.1074 82.503C16.3247 82.7203 16.6047 82.8763 16.9181 82.9403C17.0234 82.9616 17.1314 82.9736 17.2421 82.9736C17.6861 82.9736 18.0874 82.7936 18.378 82.503C18.45 82.4296 18.5154 82.351 18.5741 82.2643Z" fill="#1E6AAE"/>
<path d="M26.847 82.0598C26.9377 81.8465 26.987 81.6118 26.987 81.3665C26.987 80.3852 26.191 79.5878 25.2084 79.5878C24.2257 79.5878 23.4297 80.3852 23.4297 81.3665C23.4297 81.6118 23.479 81.8465 23.5684 82.0598C23.659 82.2718 23.7897 82.4638 23.9497 82.6238C24.2724 82.9465 24.7177 83.1465 25.2084 83.1465C25.7004 83.1465 26.1444 82.9465 26.467 82.6238C26.627 82.4638 26.7577 82.2718 26.847 82.0598Z" fill="#1E6AAE"/>
<path d="M34.8104 82.4695C34.8811 82.3642 34.9424 82.2522 34.9917 82.1335C35.0917 81.8975 35.1464 81.6389 35.1464 81.3669C35.1464 80.9589 35.0224 80.5802 34.8104 80.2655C34.4571 79.7415 33.8571 79.3962 33.1757 79.3962C33.0397 79.3962 32.9077 79.4095 32.7784 79.4362C32.3944 79.5149 32.0504 79.7069 31.7824 79.9735C31.6931 80.0629 31.6131 80.1602 31.5411 80.2655C31.3997 80.4749 31.2971 80.7135 31.2451 80.9695C31.2184 81.0975 31.2051 81.2309 31.2051 81.3669C31.2051 81.5029 31.2184 81.6362 31.2451 81.7642C31.2717 81.8922 31.3104 82.0162 31.3597 82.1335C31.4091 82.2522 31.4704 82.3642 31.5411 82.4695C31.6131 82.5735 31.6931 82.6722 31.7824 82.7602C32.0504 83.0282 32.3944 83.2189 32.7784 83.2989C32.9077 83.3242 33.0397 83.3389 33.1757 83.3389C33.7211 83.3389 34.2131 83.1175 34.5704 82.7602C34.6597 82.6722 34.7397 82.5735 34.8104 82.4695Z" fill="#1E6AAE"/>
<path d="M43.1544 82.2171C43.2637 81.9544 43.325 81.6678 43.325 81.3664C43.325 80.1611 42.3477 79.1838 41.141 79.1838C39.9357 79.1838 38.957 80.1611 38.957 81.3664C38.957 81.6678 39.0184 81.9544 39.1277 82.2171C39.2384 82.4784 39.3984 82.7131 39.597 82.9104C39.9917 83.3064 40.5384 83.5518 41.141 83.5518C41.745 83.5518 42.2904 83.3064 42.6864 82.9104C42.8837 82.7131 43.0437 82.4784 43.1544 82.2171Z" fill="#1E6AAE"/>
<path d="M34.8104 66.5359C34.9517 66.3266 35.0544 66.0879 35.1064 65.8306C35.1331 65.7026 35.1464 65.5706 35.1464 65.4333C35.1464 65.0266 35.0224 64.6466 34.8104 64.3319C34.4571 63.8079 33.8571 63.4639 33.1757 63.4639C33.0397 63.4639 32.9077 63.4773 32.7784 63.5039C32.3944 63.5826 32.0504 63.7733 31.7824 64.0399C31.6931 64.1306 31.6131 64.2279 31.5411 64.3319C31.3997 64.5426 31.2971 64.7799 31.2451 65.0373C31.2184 65.1653 31.2051 65.2973 31.2051 65.4333C31.2051 65.5706 31.2184 65.7026 31.2451 65.8306C31.2971 66.0879 31.3997 66.3266 31.5411 66.5359C31.6131 66.6413 31.6931 66.7386 31.7824 66.8279C32.0504 67.0959 32.3944 67.2866 32.7784 67.3653C32.9077 67.3919 33.0397 67.4053 33.1757 67.4053C33.8571 67.4053 34.4571 67.0613 34.8104 66.5359Z" fill="#1E6AAE"/>
<path d="M43.281 65.8738C43.3104 65.7325 43.325 65.5858 43.325 65.4338C43.325 64.2298 42.3477 63.2511 41.141 63.2511C39.9357 63.2511 38.957 64.2298 38.957 65.4338C38.957 65.5858 38.9717 65.7325 39.001 65.8738C39.205 66.8698 40.0864 67.6191 41.141 67.6191C42.197 67.6191 43.077 66.8698 43.281 65.8738Z" fill="#1E6AAE"/>
<path d="M26.951 65.7939C26.975 65.6779 26.987 65.5579 26.987 65.4352C26.987 64.4526 26.191 63.6565 25.2084 63.6565C24.2257 63.6565 23.4297 64.4526 23.4297 65.4352C23.4297 65.5579 23.4417 65.6779 23.4657 65.7939C23.631 66.6032 24.3484 67.2139 25.2084 67.2139C26.0684 67.2139 26.7857 66.6032 26.951 65.7939Z" fill="#1E6AAE"/>
<path d="M51.4801 65.9212C51.5121 65.7638 51.5294 65.6012 51.5294 65.4332C51.5294 64.5985 51.1068 63.8625 50.4628 63.4278C50.0774 63.1665 49.6108 63.0145 49.1095 63.0145C48.9428 63.0145 48.7801 63.0318 48.6228 63.0638C47.5201 63.2892 46.6895 64.2652 46.6895 65.4332C46.6895 65.6012 46.7068 65.7638 46.7388 65.9212C46.9321 66.8665 47.6775 67.6118 48.6228 67.8052C48.7801 67.8385 48.9428 67.8545 49.1095 67.8545C49.6108 67.8545 50.0774 67.7025 50.4628 67.4411C50.9774 67.0931 51.3521 66.5518 51.4801 65.9212Z" fill="#1E6AAE"/>
<path d="M59.7039 65.9736C59.7385 65.8002 59.7572 65.6189 59.7572 65.4336C59.7572 63.9536 58.5572 62.7535 57.0759 62.7535C55.5945 62.7535 54.3945 63.9536 54.3945 65.4336C54.3945 65.6189 54.4132 65.8002 54.4479 65.9736C54.6985 67.1962 55.7799 68.1162 57.0759 68.1162C58.3719 68.1162 59.4532 67.1962 59.7039 65.9736Z" fill="#1E6AAE"/>
<path d="M63.8817 61.4521C63.8817 59.8921 62.6163 58.6294 61.059 58.6294C59.499 58.6294 58.2363 59.8921 58.2363 61.4521C58.2363 63.0094 59.499 64.2734 61.059 64.2734C62.6163 64.2734 63.8817 63.0094 63.8817 61.4521Z" fill="#1E6AAE"/>
<path d="M39.2333 61.4521C39.2333 60.3054 38.304 59.376 37.1587 59.376C36.0133 59.376 35.084 60.3054 35.084 61.4521C35.084 62.5974 36.0133 63.5254 37.1587 63.5254C38.304 63.5254 39.2333 62.5974 39.2333 61.4521Z" fill="#1E6AAE"/>
<path d="M47.4255 61.4523C47.4255 60.1816 46.3948 59.1523 45.1268 59.1523C43.8561 59.1523 42.8281 60.1816 42.8281 61.4523C42.8281 62.7216 43.8561 63.751 45.1268 63.751C46.3948 63.751 47.4255 62.7216 47.4255 61.4523Z" fill="#1E6AAE"/>
<path d="M55.6396 61.4523C55.6396 60.0443 54.4996 58.9044 53.0929 58.9044C51.6863 58.9044 50.5449 60.0443 50.5449 61.4523C50.5449 62.8577 51.6863 63.999 53.0929 63.999C54.4996 63.999 55.6396 62.8577 55.6396 61.4523Z" fill="#1E6AAE"/>
<path d="M34.8104 74.5027C35.0224 74.1881 35.1464 73.8094 35.1464 73.4014C35.1464 72.9934 35.0224 72.6134 34.8104 72.3001C34.4571 71.7747 33.8571 71.4307 33.1757 71.4307C33.0397 71.4307 32.9077 71.4441 32.7784 71.4707C32.3944 71.5494 32.0504 71.7401 31.7824 72.0067C31.6931 72.0974 31.6131 72.1947 31.5411 72.3001C31.3997 72.5094 31.2971 72.7481 31.2451 73.0041C31.2184 73.1321 31.2051 73.2654 31.2051 73.4014C31.2051 73.5374 31.2184 73.6694 31.2451 73.7974C31.2971 74.0547 31.3997 74.2934 31.5411 74.5027C31.6131 74.6067 31.6931 74.7054 31.7824 74.7947C32.0504 75.0627 32.3944 75.2534 32.7784 75.3321C32.9077 75.3587 33.0397 75.3721 33.1757 75.3721C33.8571 75.3721 34.4571 75.0267 34.8104 74.5027Z" fill="#1E6AAE"/>
<path d="M18.5741 74.2988C18.7461 74.0428 18.8474 73.7335 18.8474 73.4015C18.8474 73.0695 18.7461 72.7602 18.5741 72.5042C18.2847 72.0762 17.7967 71.7962 17.2421 71.7962C17.1314 71.7962 17.0234 71.8068 16.9181 71.8295C16.6047 71.8935 16.3247 72.0482 16.1074 72.2668C16.0341 72.3388 15.9687 72.4188 15.9114 72.5042C15.7954 72.6748 15.7127 72.8695 15.6687 73.0775C15.6487 73.1815 15.6367 73.2908 15.6367 73.4015C15.6367 73.5122 15.6487 73.6202 15.6687 73.7242C15.7127 73.9335 15.7954 74.1282 15.9114 74.2988C15.9687 74.3842 16.0341 74.4642 16.1074 74.5362C16.3247 74.7548 16.6047 74.9095 16.9181 74.9735C17.0234 74.9962 17.1314 75.0068 17.2421 75.0068C17.7967 75.0068 18.2847 74.7255 18.5741 74.2988Z" fill="#1E6AAE"/>
<path d="M26.987 73.401C26.987 72.4184 26.191 71.6224 25.2084 71.6224C24.2257 71.6224 23.4297 72.4184 23.4297 73.401C23.4297 74.3824 24.2257 75.1797 25.2084 75.1797C26.191 75.1797 26.987 74.3824 26.987 73.401Z" fill="#1E6AAE"/>
<path d="M55.6396 69.4174C55.6396 68.0108 54.4996 66.8708 53.0929 66.8708C51.6863 66.8708 50.5449 68.0108 50.5449 69.4174C50.5449 70.8241 51.6863 71.9668 53.0929 71.9668C54.4996 71.9668 55.6396 70.8241 55.6396 69.4174Z" fill="#1E6AAE"/>
<path d="M47.4255 69.4178C47.4255 68.1484 46.3948 67.1191 45.1268 67.1191C43.8561 67.1191 42.8281 68.1484 42.8281 69.4178C42.8281 70.6884 43.8561 71.7178 45.1268 71.7178C46.3948 71.7178 47.4255 70.6884 47.4255 69.4178Z" fill="#1E6AAE"/>
<path d="M22.9152 69.4174C22.9152 68.484 22.1592 67.7281 21.2258 67.7281C20.2925 67.7281 19.5352 68.484 19.5352 69.4174C19.5352 70.3507 20.2925 71.1094 21.2258 71.1094C22.1592 71.1094 22.9152 70.3507 22.9152 69.4174Z" fill="#1E6AAE"/>
<path d="M39.2333 69.4172C39.2333 68.2718 38.304 67.3425 37.1587 67.3425C36.0133 67.3425 35.084 68.2718 35.084 69.4172C35.084 70.5638 36.0133 71.4932 37.1587 71.4932C38.304 71.4932 39.2333 70.5638 39.2333 69.4172Z" fill="#1E6AAE"/>
<path d="M31.0637 69.4177C31.0637 68.3843 30.225 67.5457 29.1917 67.5457C28.157 67.5457 27.3184 68.3843 27.3184 69.4177C27.3184 70.4523 28.157 71.291 29.1917 71.291C30.225 71.291 31.0637 70.4523 31.0637 69.4177Z" fill="#1E6AAE"/>
<path d="M22.9152 101.283C22.9152 100.35 22.1592 99.5936 21.2258 99.5936C20.2925 99.5936 19.5352 100.35 19.5352 101.283C19.5352 102.216 20.2925 102.974 21.2258 102.974C22.1592 102.974 22.9152 102.216 22.9152 101.283Z" fill="#1E6AAE"/>
<path d="M6.66935 101.283C6.66935 100.523 6.05336 99.9068 5.29336 99.9068C4.53336 99.9068 3.91602 100.523 3.91602 101.283C3.91602 102.043 4.53336 102.66 5.29336 102.66C6.05336 102.66 6.66935 102.043 6.66935 101.283Z" fill="#1E6AAE"/>
<path d="M14.7837 101.283C14.7837 100.44 14.101 99.7576 13.2597 99.7576C12.4171 99.7576 11.7344 100.44 11.7344 101.283C11.7344 102.126 12.4171 102.81 13.2597 102.81C14.101 102.81 14.7837 102.126 14.7837 101.283Z" fill="#1E6AAE"/>
<path d="M18.5741 106.164C18.7461 105.907 18.8474 105.599 18.8474 105.267C18.8474 104.933 18.7461 104.625 18.5741 104.369C18.2847 103.941 17.7967 103.661 17.2421 103.661C17.1314 103.661 17.0234 103.672 16.9181 103.693C16.6047 103.757 16.3247 103.913 16.1074 104.131C16.0341 104.204 15.9687 104.284 15.9114 104.369C15.7954 104.54 15.7127 104.733 15.6687 104.943C15.6487 105.047 15.6367 105.156 15.6367 105.267C15.6367 105.377 15.6487 105.485 15.6687 105.589C15.7127 105.799 15.7954 105.993 15.9114 106.164C15.9687 106.249 16.0341 106.328 16.1074 106.401C16.3247 106.619 16.6047 106.775 16.9181 106.839C17.0234 106.86 17.1314 106.872 17.2421 106.872C17.7967 106.872 18.2847 106.591 18.5741 106.164Z" fill="#1E6AAE"/>
<path d="M10.7248 105.267C10.7248 104.467 10.0755 103.817 9.2755 103.817C8.4755 103.817 7.82617 104.467 7.82617 105.267C7.82617 106.065 8.4755 106.716 9.2755 106.716C10.0755 106.716 10.7248 106.065 10.7248 105.267Z" fill="#1E6AAE"/>
<path d="M26.987 89.3337C26.987 88.3523 26.191 87.555 25.2084 87.555C24.2257 87.555 23.4297 88.3523 23.4297 89.3337C23.4297 90.315 24.2257 91.1123 25.2084 91.1123C26.191 91.1123 26.987 90.315 26.987 89.3337Z" fill="#1E6AAE"/>
<path d="M34.8104 90.4363C35.0224 90.1203 35.1464 89.7417 35.1464 89.3337C35.1464 88.9257 35.0224 88.547 34.8104 88.2323C34.4571 87.7083 33.8571 87.363 33.1757 87.363C33.0397 87.363 32.9077 87.3763 32.7784 87.403C32.3944 87.4817 32.0504 87.6737 31.7824 87.9403C31.6931 88.0297 31.6131 88.127 31.5411 88.2323C31.3997 88.4417 31.2971 88.6803 31.2451 88.9363C31.2184 89.0643 31.2051 89.1977 31.2051 89.3337C31.2051 89.4697 31.2184 89.603 31.2451 89.731C31.2971 89.987 31.3997 90.2257 31.5411 90.4363C31.6131 90.5403 31.6931 90.639 31.7824 90.727C32.0504 90.995 32.3944 91.1857 32.7784 91.2643C32.9077 91.291 33.0397 91.3057 33.1757 91.3057C33.8571 91.3057 34.4571 90.9603 34.8104 90.4363Z" fill="#1E6AAE"/>
<path d="M18.5741 90.2305C18.7461 89.9745 18.8474 89.6651 18.8474 89.3331C18.8474 89.0011 18.7461 88.6918 18.5741 88.4358C18.2847 88.0091 17.7967 87.7291 17.2421 87.7291C17.1314 87.7291 17.0234 87.7398 16.9181 87.7611C16.6047 87.8251 16.3247 87.9811 16.1074 88.1985C16.0341 88.2718 15.9687 88.3505 15.9114 88.4358C15.7954 88.6065 15.7127 88.8011 15.6687 89.0091C15.6487 89.1144 15.6367 89.2225 15.6367 89.3331C15.6367 89.4438 15.6487 89.5518 15.6687 89.6571C15.7127 89.8651 15.7954 90.0598 15.9114 90.2305C15.9687 90.3158 16.0341 90.3958 16.1074 90.4691C16.3247 90.6865 16.6047 90.8425 16.9181 90.9065C17.0234 90.9278 17.1314 90.9385 17.2421 90.9385C17.7967 90.9385 18.2847 90.6571 18.5741 90.2305Z" fill="#1E6AAE"/>
<path d="M2.616 89.3336C2.616 88.883 2.38801 88.4843 2.04001 88.2496C1.83067 88.1096 1.57867 88.027 1.30801 88.027C1.21734 88.027 1.12933 88.0363 1.04399 88.0536C0.449327 88.1749 0 88.703 0 89.3336C0 89.9656 0.449327 90.4936 1.04399 90.6149C1.12933 90.6323 1.21734 90.6416 1.30801 90.6416C1.57867 90.6416 1.83067 90.5589 2.04001 90.4176C2.38801 90.1829 2.616 89.7843 2.616 89.3336Z" fill="#1E6AAE"/>
<path d="M10.7248 89.3339C10.7248 88.5339 10.0755 87.8859 9.2755 87.8859C8.4755 87.8859 7.82617 88.5339 7.82617 89.3339C7.82617 90.1339 8.4755 90.7832 9.2755 90.7832C10.0755 90.7832 10.7248 90.1339 10.7248 89.3339Z" fill="#1E6AAE"/>
<path d="M2.23333 98.2238C2.352 98.1051 2.44666 97.9651 2.51333 97.8077C2.57866 97.6517 2.616 97.4798 2.616 97.2998C2.616 96.8478 2.38801 96.4504 2.04001 96.2158C1.83067 96.0744 1.57867 95.9918 1.30801 95.9918C1.21734 95.9918 1.12933 96.0011 1.04399 96.0184C0.449327 96.1398 0 96.6678 0 97.2998C0 97.4798 0.0373359 97.6517 0.102669 97.8077C0.169336 97.9651 0.265334 98.1051 0.384001 98.2238C0.561334 98.4011 0.789327 98.5291 1.04399 98.5811C1.12933 98.5984 1.21734 98.6064 1.30801 98.6064C1.57867 98.6064 1.83067 98.5251 2.04001 98.3838C2.10934 98.3371 2.17333 98.2838 2.23333 98.2238Z" fill="#1E6AAE"/>
<path d="M26.847 97.9924C26.9377 97.7791 26.987 97.5458 26.987 97.3005C26.987 96.3178 26.191 95.5218 25.2084 95.5218C24.2257 95.5218 23.4297 96.3178 23.4297 97.3005C23.4297 97.5458 23.479 97.7791 23.5684 97.9924C23.659 98.2058 23.7897 98.3964 23.9497 98.5578C24.2724 98.8804 24.7177 99.0791 25.2084 99.0791C25.7004 99.0791 26.1444 98.8804 26.467 98.5578C26.627 98.3964 26.7577 98.2058 26.847 97.9924Z" fill="#1E6AAE"/>
<path d="M10.6102 97.8624C10.6835 97.6904 10.7248 97.4997 10.7248 97.2997C10.7248 96.4997 10.0755 95.8504 9.2755 95.8504C8.4755 95.8504 7.82617 96.4997 7.82617 97.2997C7.82617 97.4997 7.86617 97.6904 7.9395 97.8624C8.01284 98.037 8.1195 98.193 8.25016 98.3237C8.51283 98.5864 8.8755 98.749 9.2755 98.749C9.6755 98.749 10.0382 98.5864 10.2995 98.3237C10.4315 98.193 10.5368 98.037 10.6102 97.8624Z" fill="#1E6AAE"/>
<path d="M18.5741 98.1973C18.6314 98.1119 18.6807 98.0199 18.7221 97.9239C18.8034 97.7319 18.8474 97.5213 18.8474 97.2999C18.8474 96.9666 18.7461 96.6586 18.5741 96.4026C18.2847 95.9746 17.7967 95.6946 17.2421 95.6946C17.1314 95.6946 17.0234 95.7053 16.9181 95.7266C16.6047 95.7906 16.3247 95.9466 16.1074 96.1639C16.0341 96.2373 15.9687 96.3173 15.9114 96.4026C15.7954 96.5733 15.7127 96.7666 15.6687 96.9759C15.6487 97.0799 15.6367 97.1879 15.6367 97.2999C15.6367 97.4106 15.6487 97.5186 15.6687 97.6226C15.6914 97.7279 15.722 97.8279 15.7634 97.9239C15.8034 98.0199 15.8527 98.1119 15.9114 98.1973C15.9687 98.2826 16.0341 98.3626 16.1074 98.4346C16.3247 98.6519 16.6047 98.8079 16.9181 98.8733C17.0234 98.8946 17.1314 98.9053 17.2421 98.9053C17.6861 98.9053 18.0874 98.7253 18.378 98.4346C18.45 98.3626 18.5154 98.2826 18.5741 98.1973Z" fill="#1E6AAE"/>
<path d="M14.7837 93.3178C14.7837 92.4738 14.101 91.7911 13.2597 91.7911C12.4171 91.7911 11.7344 92.4738 11.7344 93.3178C11.7344 94.1591 12.4171 94.8418 13.2597 94.8418C14.101 94.8418 14.7837 94.1591 14.7837 93.3178Z" fill="#1E6AAE"/>
<path d="M22.9152 93.3178C22.9152 92.3832 22.1592 91.6272 21.2258 91.6272C20.2925 91.6272 19.5352 92.3832 19.5352 93.3178C19.5352 94.2498 20.2925 95.0059 21.2258 95.0059C22.1592 95.0059 22.9152 94.2498 22.9152 93.3178Z" fill="#1E6AAE"/>
<path d="M6.66935 93.3174C6.66935 92.556 6.05336 91.94 5.29336 91.94C4.53336 91.94 3.91602 92.556 3.91602 93.3174C3.91602 94.076 4.53336 94.6934 5.29336 94.6934C6.05336 94.6934 6.66935 94.076 6.66935 93.3174Z" fill="#1E6AAE"/>
<path d="M31.0637 61.4522C31.0637 60.4175 30.225 59.5789 29.1917 59.5789C28.157 59.5789 27.3184 60.4175 27.3184 61.4522C27.3184 62.4855 28.157 63.3242 29.1917 63.3242C30.225 63.3242 31.0637 62.4855 31.0637 61.4522Z" fill="#1E6AAE"/>
<path d="M31.0637 93.3178C31.0637 92.2818 30.225 91.4445 29.1917 91.4445C28.157 91.4445 27.3184 92.2818 27.3184 93.3178C27.3184 94.3511 28.157 95.1885 29.1917 95.1885C30.225 95.1885 31.0637 94.3511 31.0637 93.3178Z" fill="#1E6AAE"/>
<path d="M47.4255 53.4852C47.4255 52.2145 46.3948 51.1865 45.1268 51.1865C43.8561 51.1865 42.8281 52.2145 42.8281 53.4852C42.8281 54.7545 43.8561 55.7852 45.1268 55.7852C46.3948 55.7852 47.4255 54.7545 47.4255 53.4852Z" fill="#1E6AAE"/>
<path d="M39.2333 53.4855C39.2333 52.3388 38.304 51.4108 37.1587 51.4108C36.0133 51.4108 35.084 52.3388 35.084 53.4855C35.084 54.6308 36.0133 55.5615 37.1587 55.5615C38.304 55.5615 39.2333 54.6308 39.2333 53.4855Z" fill="#1E6AAE"/>
<path d="M55.6396 53.4852C55.6396 52.0785 54.4996 50.9385 53.0929 50.9385C51.6863 50.9385 50.5449 52.0785 50.5449 53.4852C50.5449 54.8919 51.6863 56.0332 53.0929 56.0332C54.4996 56.0332 55.6396 54.8919 55.6396 53.4852Z" fill="#1E6AAE"/>
<path d="M63.8817 53.4856C63.8817 51.9269 62.6163 50.6629 61.059 50.6629C59.499 50.6629 58.2363 51.9269 58.2363 53.4856C58.2363 55.0442 59.499 56.3096 61.059 56.3096C62.6163 56.3096 63.8817 55.0442 63.8817 53.4856Z" fill="#1E6AAE"/>
<path d="M51.5294 57.4677C51.5294 56.633 51.1068 55.897 50.4628 55.4624C50.0774 55.201 49.6108 55.049 49.1095 55.049C48.9428 55.049 48.7801 55.0664 48.6228 55.0984C47.5201 55.3237 46.6895 56.2997 46.6895 57.4677C46.6895 58.637 47.5201 59.613 48.6228 59.8397C48.7801 59.8717 48.9428 59.8877 49.1095 59.8877C49.6108 59.8877 50.0774 59.7357 50.4628 59.4743C51.1068 59.0397 51.5294 58.3024 51.5294 57.4677Z" fill="#1E6AAE"/>
<path d="M34.8104 58.5711C35.0224 58.2551 35.1464 57.8764 35.1464 57.4684C35.1464 57.0604 35.0224 56.6818 34.8104 56.3671C34.4571 55.8431 33.8571 55.4978 33.1757 55.4978C33.0397 55.4978 32.9077 55.5124 32.7784 55.5391C32.3944 55.6178 32.0504 55.8084 31.7824 56.0751C31.6931 56.1644 31.6131 56.2631 31.5411 56.3671C31.3997 56.5764 31.2971 56.8151 31.2451 57.0724C31.2184 57.2004 31.2051 57.3324 31.2051 57.4684C31.2051 57.6044 31.2184 57.7378 31.2451 57.8658C31.2971 58.1218 31.3997 58.3604 31.5411 58.5711C31.6131 58.6751 31.6931 58.7738 31.7824 58.8631C32.0504 59.1298 32.3944 59.3218 32.7784 59.4004C32.9077 59.4271 33.0397 59.4404 33.1757 59.4404C33.8571 59.4404 34.4571 59.0951 34.8104 58.5711Z" fill="#1E6AAE"/>
<path d="M67.0184 57.4684C67.0184 56.3777 66.1344 55.4937 65.0424 55.4937C63.9517 55.4937 63.0664 56.3777 63.0664 57.4684C63.0664 58.559 63.9517 59.4443 65.0424 59.4443C66.1344 59.4443 67.0184 58.559 67.0184 57.4684Z" fill="#1E6AAE"/>
<path d="M59.7572 57.4677C59.7572 55.9877 58.5572 54.7877 57.0759 54.7877C55.5945 54.7877 54.3945 55.9877 54.3945 57.4677C54.3945 58.9477 55.5945 60.1504 57.0759 60.1504C58.5572 60.1504 59.7572 58.9477 59.7572 57.4677Z" fill="#1E6AAE"/>
<path d="M43.325 57.4684C43.325 56.263 42.3477 55.2857 41.141 55.2857C39.9357 55.2857 38.957 56.263 38.957 57.4684C38.957 58.6737 39.9357 59.6523 41.141 59.6523C42.3477 59.6523 43.325 58.6737 43.325 57.4684Z" fill="#1E6AAE"/>
<path d="M39.2333 21.5201C39.2333 20.3734 38.304 19.4454 37.1587 19.4454C36.0133 19.4454 35.084 20.3734 35.084 21.5201C35.084 22.6654 36.0133 23.5947 37.1587 23.5947C38.304 23.5947 39.2333 22.6654 39.2333 21.5201Z" fill="#1E6AAE"/>
<path d="M14.7837 21.5196C14.7837 20.6769 14.101 19.9943 13.2597 19.9943C12.4171 19.9943 11.7344 20.6769 11.7344 21.5196C11.7344 22.3623 12.4171 23.0449 13.2597 23.0449C14.101 23.0449 14.7837 22.3623 14.7837 21.5196Z" fill="#1E6AAE"/>
<path d="M31.0637 21.5206C31.0637 20.4859 30.225 19.6486 29.1917 19.6486C28.157 19.6486 27.3184 20.4859 27.3184 21.5206C27.3184 22.5552 28.157 23.3926 29.1917 23.3926C30.225 23.3926 31.0637 22.5552 31.0637 21.5206Z" fill="#1E6AAE"/>
<path d="M6.66935 21.5205C6.66935 20.7605 6.05336 20.1431 5.29336 20.1431C4.53336 20.1431 3.91602 20.7605 3.91602 21.5205C3.91602 22.2805 4.53336 22.8965 5.29336 22.8965C6.05336 22.8965 6.66935 22.2805 6.66935 21.5205Z" fill="#1E6AAE"/>
<path d="M22.9152 21.5197C22.9152 20.585 22.1592 19.829 21.2258 19.829C20.2925 19.829 19.5352 20.585 19.5352 21.5197C19.5352 22.453 20.2925 23.209 21.2258 23.209C22.1592 23.209 22.9152 22.453 22.9152 21.5197Z" fill="#1E6AAE"/>
<path d="M31.0637 29.487C31.0637 28.4523 30.225 27.615 29.1917 27.615C28.157 27.615 27.3184 28.4523 27.3184 29.487C27.3184 30.5217 28.157 31.3604 29.1917 31.3604C30.225 31.3604 31.0637 30.5217 31.0637 29.487Z" fill="#1E6AAE"/>
<path d="M22.9152 29.4871C22.9152 28.5537 22.1592 27.7964 21.2258 27.7964C20.2925 27.7964 19.5352 28.5537 19.5352 29.4871C19.5352 30.4204 20.2925 31.1777 21.2258 31.1777C22.1592 31.1777 22.9152 30.4204 22.9152 29.4871Z" fill="#1E6AAE"/>
<path d="M47.4255 29.4871C47.4255 28.2178 46.3948 27.1884 45.1268 27.1884C43.8561 27.1884 42.8281 28.2178 42.8281 29.4871C42.8281 30.7564 43.8561 31.7871 45.1268 31.7871C46.3948 31.7871 47.4255 30.7564 47.4255 29.4871Z" fill="#1E6AAE"/>
<path d="M39.2333 29.4865C39.2333 28.3398 38.304 27.4118 37.1587 27.4118C36.0133 27.4118 35.084 28.3398 35.084 29.4865C35.084 30.6318 36.0133 31.5625 37.1587 31.5625C38.304 31.5625 39.2333 30.6318 39.2333 29.4865Z" fill="#1E6AAE"/>
<path d="M14.7837 29.4864C14.7837 28.6437 14.101 27.9611 13.2597 27.9611C12.4171 27.9611 11.7344 28.6437 11.7344 29.4864C11.7344 30.3291 12.4171 31.0117 13.2597 31.0117C14.101 31.0117 14.7837 30.3291 14.7837 29.4864Z" fill="#1E6AAE"/>
<path d="M10.6102 26.0668C10.6835 25.8935 10.7248 25.7028 10.7248 25.5028C10.7248 24.7028 10.0755 24.0548 9.2755 24.0548C8.4755 24.0548 7.82617 24.7028 7.82617 25.5028C7.82617 25.7028 7.86617 25.8935 7.9395 26.0668C8.01284 26.2402 8.1195 26.3962 8.25016 26.5282C8.51283 26.7908 8.8755 26.9521 9.2755 26.9521C9.6755 26.9521 10.0382 26.7908 10.2995 26.5282C10.4315 26.3962 10.5368 26.2402 10.6102 26.0668Z" fill="#1E6AAE"/>
<path d="M18.5741 26.4001C18.6314 26.3147 18.6807 26.2241 18.7221 26.1281C18.8034 25.9361 18.8474 25.7241 18.8474 25.5027C18.8474 25.1707 18.7461 24.8627 18.5741 24.6054C18.2847 24.1787 17.7967 23.8974 17.2421 23.8974C17.1314 23.8974 17.0234 23.9094 16.9181 23.9307C16.6047 23.9947 16.3247 24.1507 16.1074 24.3681C16.0341 24.4401 15.9687 24.5201 15.9114 24.6054C15.7954 24.7761 15.7127 24.9707 15.6687 25.18C15.6487 25.284 15.6367 25.3921 15.6367 25.5027C15.6367 25.6147 15.6487 25.7214 15.6687 25.8267C15.6914 25.9307 15.722 26.0321 15.7634 26.1281C15.8034 26.2241 15.8527 26.3147 15.9114 26.4001C15.9687 26.4854 16.0341 26.5654 16.1074 26.6387C16.3247 26.8561 16.6047 27.012 16.9181 27.076C17.0234 27.0974 17.1314 27.1094 17.2421 27.1094C17.6861 27.1094 18.0874 26.9294 18.378 26.6387C18.45 26.5654 18.5154 26.4854 18.5741 26.4001Z" fill="#1E6AAE"/>
<path d="M26.847 26.1965C26.9377 25.9832 26.987 25.7486 26.987 25.5032C26.987 24.5219 26.191 23.7245 25.2084 23.7245C24.2257 23.7245 23.4297 24.5219 23.4297 25.5032C23.4297 25.7486 23.479 25.9832 23.5684 26.1965C23.659 26.4085 23.7897 26.6005 23.9497 26.7619C24.2724 27.0832 24.7177 27.2832 25.2084 27.2832C25.7004 27.2832 26.1444 27.0832 26.467 26.7619C26.627 26.6005 26.7577 26.4085 26.847 26.1965Z" fill="#1E6AAE"/>
<path d="M34.8104 26.6053C34.8811 26.5 34.9424 26.388 34.9917 26.2693C35.0917 26.0333 35.1464 25.7746 35.1464 25.5026C35.1464 25.0946 35.0224 24.716 34.8104 24.4013C34.4571 23.8773 33.8571 23.532 33.1757 23.532C33.0397 23.532 32.9077 23.5466 32.7784 23.572C32.3944 23.6506 32.0504 23.8426 31.7824 24.1093C31.6931 24.1986 31.6131 24.296 31.5411 24.4013C31.3997 24.6106 31.2971 24.8493 31.2451 25.1053C31.2184 25.2333 31.2051 25.3666 31.2051 25.5026C31.2051 25.6386 31.2184 25.772 31.2451 25.9C31.2717 26.028 31.3104 26.152 31.3597 26.2693C31.4091 26.388 31.4704 26.5 31.5411 26.6053C31.6131 26.7093 31.6931 26.8066 31.7824 26.8973C32.0504 27.164 32.3944 27.356 32.7784 27.4346C32.9077 27.4613 33.0397 27.4746 33.1757 27.4746C33.7211 27.4746 34.2131 27.2533 34.5704 26.8973C34.6597 26.8066 34.7397 26.7093 34.8104 26.6053Z" fill="#1E6AAE"/>
<path d="M43.1544 26.3525C43.2637 26.0911 43.325 25.8045 43.325 25.5032C43.325 24.2978 42.3477 23.3205 41.141 23.3205C39.9357 23.3205 38.957 24.2978 38.957 25.5032C38.957 25.8045 39.0184 26.0911 39.1277 26.3525C39.2384 26.6151 39.3984 26.8498 39.597 27.0485C39.9917 27.4431 40.5384 27.6885 41.141 27.6885C41.745 27.6885 42.2904 27.4431 42.6864 27.0485C42.8837 26.8498 43.0437 26.6151 43.1544 26.3525Z" fill="#1E6AAE"/>
<path d="M26.951 9.92923C26.975 9.81323 26.987 9.69324 26.987 9.57057C26.987 8.58791 26.191 7.79186 25.2084 7.79186C24.2257 7.79186 23.4297 8.58791 23.4297 9.57057C23.4297 9.69324 23.4417 9.81323 23.4657 9.92923C23.631 10.7399 24.3484 11.3506 25.2084 11.3506C26.0684 11.3506 26.7857 10.7399 26.951 9.92923Z" fill="#1E6AAE"/>
<path d="M18.5741 10.4678C18.6887 10.2971 18.7727 10.1024 18.8154 9.8931C18.8367 9.7891 18.8474 9.68111 18.8474 9.57044C18.8474 9.23844 18.7461 8.92911 18.5741 8.67311C18.2847 8.24645 17.7967 7.9651 17.2421 7.9651C17.1314 7.9651 17.0234 7.97574 16.9181 7.99707C16.6047 8.0624 16.3247 8.21708 16.1074 8.43574C16.0341 8.50774 15.9687 8.58778 15.9114 8.67311C15.7954 8.84378 15.7127 9.03842 15.6687 9.24642C15.6487 9.35175 15.6367 9.45978 15.6367 9.57044C15.6367 9.68111 15.6487 9.7891 15.6687 9.8931C15.7127 10.1024 15.7954 10.2971 15.9114 10.4678C15.9687 10.5531 16.0341 10.6331 16.1074 10.7051C16.3247 10.9237 16.6047 11.0797 16.9181 11.1437C17.0234 11.1651 17.1314 11.1758 17.2421 11.1758C17.7967 11.1758 18.2847 10.8958 18.5741 10.4678Z" fill="#1E6AAE"/>
<path d="M2.58934 9.83353C2.60667 9.74953 2.616 9.66157 2.616 9.5709C2.616 9.1189 2.38801 8.72158 2.04001 8.48691C1.83067 8.34558 1.57867 8.26289 1.30801 8.26289C1.21734 8.26289 1.12933 8.27225 1.04399 8.28958C0.449327 8.41225 0 8.9389 0 9.5709C0 9.66157 0.00932682 9.74953 0.0266602 9.83353C0.131993 10.3455 0.533327 10.7482 1.04399 10.8522C1.12933 10.8695 1.21734 10.8789 1.30801 10.8789C1.57867 10.8789 1.83067 10.7962 2.04001 10.6549C2.31734 10.4669 2.52001 10.1749 2.58934 9.83353Z" fill="#1E6AAE"/>
<path d="M10.6955 9.86315C10.7142 9.76848 10.7248 9.67116 10.7248 9.57116C10.7248 8.77116 10.0755 8.12181 9.2755 8.12181C8.4755 8.12181 7.82617 8.77116 7.82617 9.57116C7.82617 9.67116 7.83683 9.76848 7.8555 9.86315C7.99017 10.5232 8.5755 11.0205 9.2755 11.0205C9.9755 11.0205 10.5595 10.5232 10.6955 9.86315Z" fill="#1E6AAE"/>
<path d="M34.8104 18.6385C35.0224 18.3238 35.1464 17.9452 35.1464 17.5372C35.1464 17.1292 35.0224 16.7505 34.8104 16.4358C34.4571 15.9118 33.8571 15.5665 33.1757 15.5665C33.0397 15.5665 32.9077 15.5798 32.7784 15.6065C32.3944 15.6852 32.0504 15.8758 31.7824 16.1438C31.6931 16.2331 31.6131 16.3305 31.5411 16.4358C31.3997 16.6451 31.2971 16.8838 31.2451 17.1398C31.2184 17.2678 31.2051 17.4012 31.2051 17.5372C31.2051 17.6732 31.2184 17.8051 31.2451 17.9331C31.2971 18.1905 31.3997 18.4291 31.5411 18.6385C31.6131 18.7438 31.6931 18.8411 31.7824 18.9305C32.0504 19.1985 32.3944 19.3892 32.7784 19.4678C32.9077 19.4945 33.0397 19.5078 33.1757 19.5078C33.8571 19.5078 34.4571 19.1625 34.8104 18.6385Z" fill="#1E6AAE"/>
<path d="M2.616 17.5377C2.616 17.0857 2.38801 16.6884 2.04001 16.4537C1.83067 16.3124 1.57867 16.2297 1.30801 16.2297C1.21734 16.2297 1.12933 16.239 1.04399 16.2564C0.449327 16.379 0 16.9057 0 17.5377C0 18.1697 0.449327 18.6963 1.04399 18.819C1.12933 18.8363 1.21734 18.8457 1.30801 18.8457C1.57867 18.8457 1.83067 18.763 2.04001 18.6217C2.38801 18.387 2.616 17.9884 2.616 17.5377Z" fill="#1E6AAE"/>
<path d="M18.5741 18.4346C18.7461 18.1786 18.8474 17.8692 18.8474 17.5372C18.8474 17.2052 18.7461 16.8959 18.5741 16.6399C18.2847 16.2132 17.7967 15.9319 17.2421 15.9319C17.1314 15.9319 17.0234 15.9425 16.9181 15.9639C16.6047 16.0292 16.3247 16.1839 16.1074 16.4025C16.0341 16.4745 15.9687 16.5546 15.9114 16.6399C15.7954 16.8106 15.7127 17.0052 15.6687 17.2132C15.6487 17.3185 15.6367 17.4266 15.6367 17.5372C15.6367 17.6479 15.6487 17.7559 15.6687 17.8599C15.7127 18.0692 15.7954 18.2639 15.9114 18.4346C15.9687 18.5199 16.0341 18.5999 16.1074 18.6719C16.3247 18.8905 16.6047 19.0452 16.9181 19.1105C17.0234 19.1319 17.1314 19.1426 17.2421 19.1426C17.7967 19.1426 18.2847 18.8612 18.5741 18.4346Z" fill="#1E6AAE"/>
<path d="M10.7248 17.537C10.7248 16.737 10.0755 16.0876 9.2755 16.0876C8.4755 16.0876 7.82617 16.737 7.82617 17.537C7.82617 18.337 8.4755 18.9863 9.2755 18.9863C10.0755 18.9863 10.7248 18.337 10.7248 17.537Z" fill="#1E6AAE"/>
<path d="M26.987 17.5378C26.987 16.5551 26.191 15.759 25.2084 15.759C24.2257 15.759 23.4297 16.5551 23.4297 17.5378C23.4297 18.5191 24.2257 19.3164 25.2084 19.3164C26.191 19.3164 26.987 18.5191 26.987 17.5378Z" fill="#1E6AAE"/>
<path d="M6.66935 13.5547C6.66935 12.7934 6.05336 12.1773 5.29336 12.1773C4.53336 12.1773 3.91602 12.7934 3.91602 13.5547C3.91602 14.3147 4.53336 14.9307 5.29336 14.9307C6.05336 14.9307 6.66935 14.3147 6.66935 13.5547Z" fill="#1E6AAE"/>
<path d="M14.7837 13.5548C14.7837 12.7121 14.101 12.0294 13.2597 12.0294C12.4171 12.0294 11.7344 12.7121 11.7344 13.5548C11.7344 14.3961 12.4171 15.0801 13.2597 15.0801C14.101 15.0801 14.7837 14.3961 14.7837 13.5548Z" fill="#1E6AAE"/>
<path d="M22.9152 13.5544C22.9152 12.6198 22.1592 11.8637 21.2258 11.8637C20.2925 11.8637 19.5352 12.6198 19.5352 13.5544C19.5352 14.4878 20.2925 15.2451 21.2258 15.2451C22.1592 15.2451 22.9152 14.4878 22.9152 13.5544Z" fill="#1E6AAE"/>
<path d="M31.0637 13.5544C31.0637 12.5184 30.225 11.6811 29.1917 11.6811C28.157 11.6811 27.3184 12.5184 27.3184 13.5544C27.3184 14.5878 28.157 15.4277 29.1917 15.4277C30.225 15.4277 31.0637 14.5878 31.0637 13.5544Z" fill="#1E6AAE"/>
<path d="M39.2333 45.4191C39.2333 44.2738 38.304 43.3444 37.1587 43.3444C36.0133 43.3444 35.084 44.2738 35.084 45.4191C35.084 46.5644 36.0133 47.4951 37.1587 47.4951C38.304 47.4951 39.2333 46.5644 39.2333 45.4191Z" fill="#1E6AAE"/>
<path d="M47.4255 45.4188C47.4255 44.1494 46.3948 43.1201 45.1268 43.1201C43.8561 43.1201 42.8281 44.1494 42.8281 45.4188C42.8281 46.6881 43.8561 47.7188 45.1268 47.7188C46.3948 47.7188 47.4255 46.6881 47.4255 45.4188Z" fill="#1E6AAE"/>
<path d="M55.6396 45.4188C55.6396 44.0121 54.4996 42.8721 53.0929 42.8721C51.6863 42.8721 50.5449 44.0121 50.5449 45.4188C50.5449 46.8254 51.6863 47.9668 53.0929 47.9668C54.4996 47.9668 55.6396 46.8254 55.6396 45.4188Z" fill="#1E6AAE"/>
<path d="M63.8817 45.4192C63.8817 43.8605 62.6163 42.5965 61.059 42.5965C59.499 42.5965 58.2363 43.8605 58.2363 45.4192C58.2363 46.9778 59.499 48.2432 61.059 48.2432C62.6163 48.2432 63.8817 46.9778 63.8817 45.4192Z" fill="#1E6AAE"/>
<path d="M31.0637 45.4183C31.0637 44.385 30.225 43.5463 29.1917 43.5463C28.157 43.5463 27.3184 44.385 27.3184 45.4183C27.3184 46.453 28.157 47.293 29.1917 47.293C30.225 47.293 31.0637 46.453 31.0637 45.4183Z" fill="#1E6AAE"/>
<path d="M55.6396 53.385C55.6396 51.977 54.4996 50.837 53.0929 50.837C51.6863 50.837 50.5449 51.977 50.5449 53.385C50.5449 54.7916 51.6863 55.9316 53.0929 55.9316C54.4996 55.9316 55.6396 54.7916 55.6396 53.385Z" fill="#1E6AAE"/>
<path d="M47.4255 53.3849C47.4255 52.1143 46.3948 51.0849 45.1268 51.0849C43.8561 51.0849 42.8281 52.1143 42.8281 53.3849C42.8281 54.6543 43.8561 55.6836 45.1268 55.6836C46.3948 55.6836 47.4255 54.6543 47.4255 53.3849Z" fill="#1E6AAE"/>
<path d="M63.8817 53.3857C63.8817 51.8257 62.6163 50.563 61.059 50.563C59.499 50.563 58.2363 51.8257 58.2363 53.3857C58.2363 54.9443 59.499 56.207 61.059 56.207C62.6163 56.207 63.8817 54.9443 63.8817 53.3857Z" fill="#1E6AAE"/>
<path d="M39.2333 53.3853C39.2333 52.2386 38.304 51.3093 37.1587 51.3093C36.0133 51.3093 35.084 52.2386 35.084 53.3853C35.084 54.5306 36.0133 55.46 37.1587 55.46C38.304 55.46 39.2333 54.5306 39.2333 53.3853Z" fill="#1E6AAE"/>
<path d="M34.8104 50.5037C35.0224 50.189 35.1464 49.809 35.1464 49.4024C35.1464 48.9944 35.0224 48.6144 34.8104 48.2997C34.4571 47.7757 33.8571 47.4317 33.1757 47.4317C33.0397 47.4317 32.9077 47.445 32.7784 47.4717C32.3944 47.5504 32.0504 47.741 31.7824 48.009C31.6931 48.097 31.6131 48.1957 31.5411 48.2997C31.3997 48.5104 31.2971 48.7477 31.2451 49.005C31.2184 49.133 31.2051 49.2664 31.2051 49.4024C31.2051 49.5384 31.2184 49.6704 31.2451 49.7984C31.2971 50.0557 31.3997 50.2944 31.5411 50.5037C31.6131 50.609 31.6931 50.7064 31.7824 50.7957C32.0504 51.0637 32.3944 51.2544 32.7784 51.333C32.9077 51.3597 33.0397 51.373 33.1757 51.373C33.8571 51.373 34.4571 51.0277 34.8104 50.5037Z" fill="#1E6AAE"/>
<path d="M51.5294 49.4023C51.5294 48.5663 51.1068 47.8303 50.4628 47.3956C50.0774 47.1343 49.6108 46.9823 49.1095 46.9823C48.9428 46.9823 48.7801 46.9996 48.6228 47.0316C47.5201 47.2569 46.6895 48.2329 46.6895 49.4023C46.6895 50.5703 47.5201 51.5476 48.6228 51.7729C48.7801 51.8049 48.9428 51.8223 49.1095 51.8223C49.6108 51.8223 50.0774 51.6689 50.4628 51.4089C51.1068 50.9729 51.5294 50.2369 51.5294 49.4023Z" fill="#1E6AAE"/>
<path d="M43.325 49.4029C43.325 48.1963 42.3477 47.2189 41.141 47.2189C39.9357 47.2189 38.957 48.1963 38.957 49.4029C38.957 50.6069 39.9357 51.5869 41.141 51.5869C42.3477 51.5869 43.325 50.6069 43.325 49.4029Z" fill="#1E6AAE"/>
<path d="M67.0184 49.4029C67.0184 48.3123 66.1344 47.4269 65.0424 47.4269C63.9517 47.4269 63.0664 48.3123 63.0664 49.4029C63.0664 50.4936 63.9517 51.3789 65.0424 51.3789C66.1344 51.3789 67.0184 50.4936 67.0184 49.4029Z" fill="#1E6AAE"/>
<path d="M59.7572 49.4027C59.7572 47.9213 58.5572 46.7213 57.0759 46.7213C55.5945 46.7213 54.3945 47.9213 54.3945 49.4027C54.3945 50.8813 55.5945 52.084 57.0759 52.084C58.5572 52.084 59.7572 50.8813 59.7572 49.4027Z" fill="#1E6AAE"/>
<path d="M26.987 33.469C26.987 32.4877 26.191 31.6904 25.2084 31.6904C24.2257 31.6904 23.4297 32.4877 23.4297 33.469C23.4297 34.4517 24.2257 35.249 25.2084 35.249C26.191 35.249 26.987 34.4517 26.987 33.469Z" fill="#1E6AAE"/>
<path d="M34.8104 34.5721C35.0224 34.2574 35.1464 33.8774 35.1464 33.4694C35.1464 33.0614 35.0224 32.6828 34.8104 32.3681C34.4571 31.8441 33.8571 31.4988 33.1757 31.4988C33.0397 31.4988 32.9077 31.5134 32.7784 31.5388C32.3944 31.6174 32.0504 31.8094 31.7824 32.0761C31.6931 32.1654 31.6131 32.2628 31.5411 32.3681C31.3997 32.5774 31.2971 32.8161 31.2451 33.0721C31.2184 33.2001 31.2051 33.3334 31.2051 33.4694C31.2051 33.6054 31.2184 33.7388 31.2451 33.8668C31.2971 34.1228 31.3997 34.3614 31.5411 34.5721C31.6131 34.6761 31.6931 34.7734 31.7824 34.8628C32.0504 35.1308 32.3944 35.3214 32.7784 35.4014C32.9077 35.4268 33.0397 35.4414 33.1757 35.4414C33.8571 35.4414 34.4571 35.0961 34.8104 34.5721Z" fill="#1E6AAE"/>
<path d="M51.5294 33.4697C51.5294 32.635 51.1068 31.899 50.4628 31.4643C50.0774 31.203 49.6108 31.051 49.1095 31.051C48.9428 31.051 48.7801 31.067 48.6228 31.1003C47.5201 31.3257 46.6895 32.3003 46.6895 33.4697C46.6895 34.639 47.5201 35.615 48.6228 35.8403C48.7801 35.8737 48.9428 35.8896 49.1095 35.8896C49.6108 35.8896 50.0774 35.7376 50.4628 35.4763C51.1068 35.0403 51.5294 34.3043 51.5294 33.4697Z" fill="#1E6AAE"/>
<path d="M18.5741 34.3669C18.7461 34.1109 18.8474 33.8029 18.8474 33.4695C18.8474 33.1375 18.7461 32.8295 18.5741 32.5722C18.2847 32.1455 17.7967 31.8642 17.2421 31.8642C17.1314 31.8642 17.0234 31.8762 16.9181 31.8975C16.6047 31.9615 16.3247 32.1175 16.1074 32.3349C16.0341 32.4069 15.9687 32.4869 15.9114 32.5722C15.7954 32.7429 15.7127 32.9375 15.6687 33.1468C15.6487 33.2508 15.6367 33.3589 15.6367 33.4695C15.6367 33.5802 15.6487 33.6882 15.6687 33.7935C15.7127 34.0029 15.7954 34.1962 15.9114 34.3669C15.9687 34.4522 16.0341 34.5322 16.1074 34.6055C16.3247 34.8229 16.6047 34.9788 16.9181 35.0428C17.0234 35.0642 17.1314 35.0762 17.2421 35.0762C17.7967 35.0762 18.2847 34.7949 18.5741 34.3669Z" fill="#1E6AAE"/>
<path d="M43.325 33.469C43.325 32.2636 42.3477 31.2863 41.141 31.2863C39.9357 31.2863 38.957 32.2636 38.957 33.469C38.957 34.6743 39.9357 35.6543 41.141 35.6543C42.3477 35.6543 43.325 34.6743 43.325 33.469Z" fill="#1E6AAE"/>
<path d="M43.1544 42.2854C43.2637 42.0241 43.325 41.7375 43.325 41.4361C43.325 40.2295 42.3477 39.2521 41.141 39.2521C39.9357 39.2521 38.957 40.2295 38.957 41.4361C38.957 41.7375 39.0184 42.0241 39.1277 42.2854C39.2384 42.5468 39.3984 42.7828 39.597 42.9801C39.9917 43.3761 40.5384 43.6201 41.141 43.6201C41.745 43.6201 42.2904 43.3761 42.6864 42.9801C42.8837 42.7828 43.0437 42.5468 43.1544 42.2854Z" fill="#1E6AAE"/>
<path d="M34.8104 42.5379C34.8811 42.4339 34.9424 42.3206 34.9917 42.2032C35.0917 41.9672 35.1464 41.7072 35.1464 41.4366C35.1464 41.0286 35.0224 40.6486 34.8104 40.3339C34.4571 39.8099 33.8571 39.4659 33.1757 39.4659C33.0397 39.4659 32.9077 39.4792 32.7784 39.5059C32.3944 39.5846 32.0504 39.7752 31.7824 40.0432C31.6931 40.1312 31.6131 40.2299 31.5411 40.3339C31.3997 40.5432 31.2971 40.7819 31.2451 41.0392C31.2184 41.1672 31.2051 41.3006 31.2051 41.4366C31.2051 41.5726 31.2184 41.7046 31.2451 41.8326C31.2717 41.9619 31.3104 42.0846 31.3597 42.2032C31.4091 42.3206 31.4704 42.4339 31.5411 42.5379C31.6131 42.6432 31.6931 42.7405 31.7824 42.8299C32.0504 43.0979 32.3944 43.2886 32.7784 43.3672C32.9077 43.3939 33.0397 43.4072 33.1757 43.4072C33.7211 43.4072 34.2131 43.1872 34.5704 42.8299C34.6597 42.7405 34.7397 42.6432 34.8104 42.5379Z" fill="#1E6AAE"/>
<path d="M50.8215 43.1471C51.0401 42.9284 51.2175 42.6671 51.3401 42.3778C51.4615 42.0884 51.5294 41.7698 51.5294 41.4365C51.5294 40.6005 51.1068 39.8645 50.4628 39.4298C50.0774 39.1685 49.6108 39.0164 49.1095 39.0164C48.9428 39.0164 48.7801 39.0338 48.6228 39.0658C47.5201 39.2911 46.6895 40.2671 46.6895 41.4365C46.6895 41.7698 46.7574 42.0884 46.8801 42.3778C47.0028 42.6671 47.1801 42.9284 47.3988 43.1471C47.7268 43.4764 48.1495 43.7098 48.6228 43.8071C48.7801 43.8391 48.9428 43.8564 49.1095 43.8564C49.6108 43.8564 50.0774 43.7044 50.4628 43.4431C50.5921 43.3551 50.7121 43.2564 50.8215 43.1471Z" fill="#1E6AAE"/>
<path d="M59.5465 42.4785C59.6825 42.1572 59.7572 41.8052 59.7572 41.4345C59.7572 39.9545 58.5572 38.7545 57.0759 38.7545C55.5945 38.7545 54.3945 39.9545 54.3945 41.4345C54.3945 41.8052 54.4692 42.1572 54.6052 42.4785C54.7412 42.7998 54.9372 43.0879 55.1799 43.3305C55.6652 43.8172 56.3359 44.1172 57.0759 44.1172C57.8172 44.1172 58.4879 43.8172 58.9719 43.3305C59.2145 43.0879 59.4119 42.7998 59.5465 42.4785Z" fill="#1E6AAE"/>
<path d="M26.847 42.1282C26.9377 41.9149 26.987 41.6815 26.987 41.4362C26.987 40.4535 26.191 39.6575 25.2084 39.6575C24.2257 39.6575 23.4297 40.4535 23.4297 41.4362C23.4297 41.6815 23.479 41.9149 23.5684 42.1282C23.659 42.3402 23.7897 42.5322 23.9497 42.6935C24.2724 43.0162 24.7177 43.2148 25.2084 43.2148C25.7004 43.2148 26.1444 43.0162 26.467 42.6935C26.627 42.5322 26.7577 42.3402 26.847 42.1282Z" fill="#1E6AAE"/>
<path d="M22.9152 37.4519C22.9152 36.5186 22.1592 35.7626 21.2258 35.7626C20.2925 35.7626 19.5352 36.5186 19.5352 37.4519C19.5352 38.3853 20.2925 39.1426 21.2258 39.1426C22.1592 39.1426 22.9152 38.3853 22.9152 37.4519Z" fill="#1E6AAE"/>
<path d="M39.2333 37.453C39.2333 36.3064 38.304 35.377 37.1587 35.377C36.0133 35.377 35.084 36.3064 35.084 37.453C35.084 38.5984 36.0133 39.5264 37.1587 39.5264C38.304 39.5264 39.2333 38.5984 39.2333 37.453Z" fill="#1E6AAE"/>
<path d="M31.0637 37.4535C31.0637 36.4175 30.225 35.5802 29.1917 35.5802C28.157 35.5802 27.3184 36.4175 27.3184 37.4535C27.3184 38.4869 28.157 39.3242 29.1917 39.3242C30.225 39.3242 31.0637 38.4869 31.0637 37.4535Z" fill="#1E6AAE"/>
<path d="M55.6396 37.4533C55.6396 36.0453 54.4996 34.9053 53.0929 34.9053C51.6863 34.9053 50.5449 36.0453 50.5449 37.4533C50.5449 38.86 51.6863 40 53.0929 40C54.4996 40 55.6396 38.86 55.6396 37.4533Z" fill="#1E6AAE"/>
<path d="M47.4255 37.4536C47.4255 36.183 46.3948 35.1536 45.1268 35.1536C43.8561 35.1536 42.8281 36.183 42.8281 37.4536C42.8281 38.7216 43.8561 39.751 45.1268 39.751C46.3948 39.751 47.4255 38.7216 47.4255 37.4536Z" fill="#1E6AAE"/>
<path d="M22.9152 5.58802C22.9152 4.65335 22.1592 3.89733 21.2258 3.89733C20.2925 3.89733 19.5352 4.65335 19.5352 5.58802C19.5352 6.52135 20.2925 7.27734 21.2258 7.27734C22.1592 7.27734 22.9152 6.52135 22.9152 5.58802Z" fill="#1E6AAE"/>
<path d="M6.66935 5.58789C6.66935 4.82656 6.05336 4.21055 5.29336 4.21055C4.53336 4.21055 3.91602 4.82656 3.91602 5.58789C3.91602 6.34789 4.53336 6.96387 5.29336 6.96387C6.05336 6.96387 6.66935 6.34789 6.66935 5.58789Z" fill="#1E6AAE"/>
<path d="M14.7837 5.58828C14.7837 4.74561 14.101 4.06296 13.2597 4.06296C12.4171 4.06296 11.7344 4.74561 11.7344 5.58828C11.7344 6.42961 12.4171 7.1123 13.2597 7.1123C14.101 7.1123 14.7837 6.42961 14.7837 5.58828Z" fill="#1E6AAE"/>
<path d="M10.7248 1.60566C10.7248 0.805664 10.0755 0.15638 9.2755 0.15638C8.4755 0.15638 7.82617 0.805664 7.82617 1.60566C7.82617 2.40433 8.4755 3.05371 9.2755 3.05371C10.0755 3.05371 10.7248 2.40433 10.7248 1.60566Z" fill="#1E6AAE"/>
<path d="M18.5741 2.50293C18.7461 2.2456 18.8474 1.9376 18.8474 1.6056C18.8474 1.27227 18.7461 0.964299 18.5741 0.706966C18.2847 0.280299 17.7967 0.000260353 17.2421 0.000260353C17.1314 0.000260353 17.0234 0.0109582 16.9181 0.0322914C16.6047 0.0962915 16.3247 0.252263 16.1074 0.469596C16.0341 0.54293 15.9687 0.621633 15.9114 0.706966C15.7954 0.878966 15.7127 1.07231 15.6687 1.28164C15.6487 1.38564 15.6367 1.4936 15.6367 1.6056C15.6367 1.71493 15.6487 1.82426 15.6687 1.92826C15.7127 2.13759 15.7954 2.33093 15.9114 2.50293C15.9687 2.58826 16.0341 2.66697 16.1074 2.7403C16.3247 2.95763 16.6047 3.1136 16.9181 3.1776C17.0234 3.19894 17.1314 3.21094 17.2421 3.21094C17.7967 3.21094 18.2847 2.9296 18.5741 2.50293Z" fill="#1E6AAE"/>
</svg>
